<svg id="Layer_1" enable-background="new 0 0 512.001 512.001" height="512" viewBox="0 0 512.001 512.001" width="512" xmlns="http://www.w3.org/2000/svg"><g><g><path d="m231 126c-16.542 0-30 13.458-30 30v60c0 5.522 4.477 10 10 10s10-4.478 10-10v-20h20v20c0 5.522 4.477 10 10 10s10-4.478 10-10v-60c0-16.542-13.458-30-30-30zm10 50h-20v-20c0-5.514 4.486-10 10-10s10 4.486 10 10z"/><path d="m372 306c5.514 0 10 4.486 10 10 0 5.522 4.478 10 10 10s10-4.478 10-10c0-16.542-13.458-30-30-30s-30 13.458-30 30v40c0 16.542 13.457 30 29.999 30 16.543 0 30.001-13.458 30.001-30 0-5.522-4.478-10-10-10s-10 4.478-10 10c0 5.514-4.486 10-10.001 10-5.514 0-9.999-4.486-9.999-10v-40c0-5.513 4.486-10 10-10z"/><path d="m90 286h-20c-5.523 0-10 4.478-10 10v80c0 5.522 4.477 10 10 10h20c16.542 0 30-13.458 30-30 0-7.677-2.898-14.688-7.657-20 4.759-5.312 7.657-12.323 7.657-20 0-16.542-13.458-30-30-30zm0 20c5.514 0 10 4.486 10 10s-4.486 10-10 10h-10v-20zm0 60h-10v-20h10c5.514 0 10 4.486 10 10s-4.486 10-10 10z"/><path d="m492.002 246h-50.002-70.998v-140c0-11.028-8.972-20-20-20h-50.002-140c-11.028 0-20 8.972-20 20v140h-121c-11.028 0-20 8.972-20 20v140c0 11.028 8.972 20 20 20h140 50.001c11.028 0 20-8.972 20-20v-140h51.999v24.996c0 5.522 4.478 10 10 10s10-4.478 10-10v-24.996h140v140h-140v-25.004c0-5.522-4.478-10-10-10s-10 4.478-10 10v25.004c0 11.028 8.972 20 20 20h140 50.002c11.027 0 19.999-8.972 19.999-20v-140c0-11.028-8.972-20-19.999-20zm-472.004 20h140.002v140h-140zm190.003 140h-30.001v-140h30.002v140zm-49.001-160-.002-140h140.002v140zm160-140h30.002v140h-30.002zm141 300v-140h30.001l.001 140z"/><path d="m292 346c5.522 0 10-4.478 10-10v-.008c0-5.522-4.478-9.996-10-9.996s-10 4.481-10 10.004 4.478 10 10 10z"/></g></g></svg>